<svg width="132" height="126" viewBox="0 0 132 126" fill="none" xmlns="http://www.w3.org/2000/svg">
<g clip-path="url(#clip0_35816_119)">
<path d="M66 65.1887C74.3547 65.1887 93.9976 55.5913 93.9976 32.5942C93.9976 29.3864 93.9158 26.2876 93.6388 23.3598C93.1841 17.5974 91.9478 12.4908 88.8691 8.57687C84.9208 3.25145 78.012 0 66 0C53.99 0 47.0819 3.25046 43.1336 8.5739C40.0532 12.4881 38.8159 17.5967 38.3612 23.3608C38.0845 26.2883 38.0024 29.3867 38.0024 32.5942C38.0024 55.5913 57.6453 65.1887 66 65.1887ZM55.6222 10.7788C56.2324 9.71204 57.4012 9.04859 58.6721 9.04727C60.1377 9.04727 61.392 9.91501 61.9059 11.1378H70.0902C70.2627 10.7252 70.521 10.3464 70.8594 10.0228C71.5149 9.3947 72.3887 9.04793 73.3175 9.04694C74.5926 9.04661 75.7614 9.70642 76.3733 10.7692C76.4093 10.8313 76.4079 10.906 76.3698 10.9672C76.3324 11.0284 76.2635 11.0657 76.1897 11.0657L73.0858 11.0707C73.0311 11.1956 72.9268 11.5424 72.9282 12.3688C72.9296 13.1952 73.0352 13.5416 73.0906 13.6663L76.1946 13.6616C76.269 13.662 76.3366 13.6993 76.3747 13.7602C76.4131 13.821 76.4138 13.8963 76.3788 13.9585C75.7679 15.0246 74.5991 15.6887 73.3282 15.69L73.3234 15.6893C71.8616 15.6893 70.6083 14.8223 70.0944 13.5988H61.9101C61.7376 14.0114 61.48 14.3905 61.1416 14.7138C60.4861 15.3419 59.6123 15.689 58.6829 15.6907C58.6829 15.6903 58.6773 15.6907 58.6773 15.6907C57.4084 15.6907 56.239 15.0309 55.6267 13.9681C55.5907 13.9059 55.5928 13.8306 55.6302 13.7697C55.6672 13.7089 55.7365 13.6709 55.8106 13.6709L58.9138 13.6663C58.9686 13.5416 59.0735 13.1949 59.0714 12.3685C59.07 11.5417 58.9644 11.1953 58.909 11.0707L55.805 11.0756V11.076C55.7313 11.0753 55.6631 11.0379 55.625 10.9771C55.5879 10.9163 55.5865 10.8416 55.6222 10.7788ZM42.1678 27.6079C42.4902 28.2816 43.8605 30.8706 45.9817 31.1132C48.42 31.3922 52.4673 22.8702 66 22.8497C79.5323 22.8706 83.5799 31.3922 86.0183 31.1132C88.1394 30.8703 89.5098 28.2813 89.8322 27.6079C89.898 29.2581 89.9219 30.9284 89.9219 32.5942C89.9219 43.8354 84.7221 50.8004 80.3596 54.6638C74.863 59.5317 68.7608 61.2986 66 61.2986C63.2392 61.2986 57.1366 59.5317 51.6403 54.6638C47.2779 50.8004 42.0781 43.8354 42.0781 32.5942C42.0781 30.9284 42.102 29.2581 42.1678 27.6079Z" fill="black"/>
<path d="M117.978 98.617C116.549 90.1333 113.607 79.2051 107.704 75.321C103.675 72.6695 89.6168 65.4998 83.6136 62.4385L83.5034 62.3826C82.8171 62.0325 81.979 62.1026 81.3667 62.5614C78.2209 64.9187 74.7751 66.5074 71.125 67.2829C70.4802 67.4201 69.951 67.8574 69.7166 68.4468L65.9997 77.7989L62.2827 68.4468C62.0483 67.8574 61.5191 67.4198 60.8743 67.2829C57.2242 66.5074 53.7785 64.9187 50.6326 62.5614C50.0203 62.1026 49.1823 62.0322 48.4959 62.3826C42.5623 65.4093 28.3276 72.7273 24.3129 75.3097C17.5183 79.6795 14.5477 95.4918 14.0213 98.6173C13.969 98.9274 13.9991 99.2444 14.1089 99.5406C14.3077 100.076 18.5115 110.44 44.7842 114.221C47.0805 118.053 50.5107 121.239 54.6124 123.311C58.0969 125.071 62.0441 126.001 66.0281 126.001C67.5882 126.001 69.15 125.858 70.671 125.575C75.9287 124.599 80.7842 121.932 84.3432 118.065C85.4369 116.877 86.3944 115.587 87.2082 114.222C113.487 110.441 117.692 100.076 117.89 99.5406C118.001 99.2441 118.031 98.9267 117.978 98.617ZM86.8962 103.81C86.6399 108.248 84.7965 112.529 81.7231 115.867C78.6846 119.169 74.5258 121.467 70.0051 122.307C68.6926 122.551 67.36 122.671 66.0284 122.671C62.6374 122.671 59.255 121.889 56.2442 120.368C52.2062 118.328 48.9191 115.025 46.9985 111.067C45.0023 106.953 44.5428 102.22 45.7022 97.8233C46.8222 93.5719 49.4403 89.739 53.0401 87.021C56.7131 84.2479 61.3165 82.7194 65.9993 82.7194C68.0928 82.7194 70.1841 83.0179 72.1833 83.6096C76.5603 84.9038 80.4255 87.5946 83.0764 91.1594C85.8022 94.8251 87.1553 99.3221 86.8962 103.81Z" fill="black"/>
<path d="M69.2827 102.696C71.2393 103.066 73.1845 103.622 75.0089 104.394C76.7716 105.141 78.3511 106.194 79.9901 107.148C80.1027 107.215 80.2166 107.279 80.3306 107.343C80.8497 105.884 81.1354 104.323 81.1354 102.696C81.1354 101.07 80.8497 99.5084 80.3306 98.0496C78.6513 99.0062 77.0548 100.096 75.2748 100.884C73.3781 101.723 71.3321 102.309 69.2827 102.696Z" fill="black"/>
<path d="M79.9902 107.148C79.6265 106.937 80.1858 107.263 79.9902 107.148V107.148Z" fill="black"/>
<path d="M56.9912 104.394C58.8158 103.622 60.7604 103.066 62.7174 102.696C60.6378 102.304 58.5579 101.707 56.6365 100.845C54.8918 100.061 53.321 98.9904 51.6694 98.0493C51.1503 99.5081 50.8646 101.07 50.8646 102.696C50.8646 104.323 51.1503 105.885 51.6694 107.344C51.783 107.279 51.8973 107.215 52.0095 107.148C53.6489 106.194 55.2295 105.141 56.9912 104.394Z" fill="black"/>
<path d="M52.0095 107.148C51.8145 107.263 52.3731 106.937 52.0095 107.148V107.148Z" fill="black"/>
<path d="M68.7819 88.4971C68.8318 90.3872 69.0489 92.2741 68.8851 94.1643C68.7074 96.2102 68.2198 98.2623 67.5279 100.204C68.9547 98.6802 70.5851 97.2736 72.3599 96.1249C74.0104 95.0572 75.8466 94.3101 77.6023 93.4225C75.3926 90.9059 72.3014 89.1215 68.7819 88.4971Z" fill="black"/>
<path d="M64.4721 100.203C63.7798 98.2622 63.2926 96.21 63.1146 94.1638C62.9515 92.2736 63.1686 90.3868 63.2181 88.4966C59.6986 89.121 56.6078 90.9054 54.3977 93.4217C56.1829 94.3245 58.0495 95.0818 59.7215 96.177C61.4623 97.3181 63.0654 98.7018 64.4721 100.203Z" fill="black"/>
<path d="M63.1146 111.229C63.2929 109.184 63.7778 107.13 64.4721 105.19C63.0439 106.713 61.4142 108.12 59.6394 109.268C57.9896 110.337 56.1541 111.084 54.3977 111.971C56.6075 114.487 59.6986 116.271 63.2178 116.896C63.1683 115.006 62.9515 113.119 63.1146 111.229Z" fill="black"/>
<path d="M67.5283 105.19C68.2226 107.13 68.7078 109.184 68.8854 111.229C69.0492 113.119 68.8325 115.006 68.7822 116.896C72.3014 116.272 75.3926 114.487 77.6024 111.971C75.8178 111.068 73.9516 110.311 72.28 109.216C70.5377 108.075 68.9357 106.691 67.5283 105.19Z" fill="black"/>
</g>
<defs>
<clipPath id="clip0_35816_119">
<rect width="132" height="126" fill="white"/>
</clipPath>
</defs>
</svg>
