<svg width="132" height="126" viewBox="0 0 132 126" fill="none" xmlns="http://www.w3.org/2000/svg">
<path d="M122.132 108.935L106.477 73.7837C112.01 66.1821 115.259 56.9571 115.259 47.0201C115.259 21.0931 93.1614 0 65.9999 0C38.8389 0 16.7413 21.0931 16.7413 47.0198C16.7413 56.9571 19.9902 66.1816 25.5234 73.7832L9.86801 108.935C9.11855 110.618 9.24849 112.233 10.2248 113.367C11.2012 114.5 12.8365 114.934 14.7105 114.559L26.6668 112.159C28.0801 111.875 30.0658 112.681 30.8328 113.85L37.3185 123.733C38.2725 125.186 39.6177 126 41.046 126C41.1404 126 41.2352 125.996 41.3304 125.989C42.8633 125.874 44.1717 124.843 44.9214 123.16L58.1575 93.4411C60.7122 93.8329 63.331 94.0394 65.9999 94.0394C68.6688 94.0394 71.2876 93.8329 73.8423 93.4411L87.0786 123.16C87.8281 124.842 89.137 125.874 90.6699 125.989C90.7651 125.996 90.8599 126 90.9543 126C92.382 126 93.7278 125.186 94.6815 123.733L101.167 113.85C101.934 112.681 103.92 111.874 105.333 112.159L117.289 114.558C119.164 114.934 120.799 114.5 121.775 113.366C122.751 112.233 122.881 110.618 122.132 108.935ZM21.7054 109.063L13.8473 110.64C13.7782 110.654 13.7159 110.664 13.6599 110.671C13.6785 110.62 13.7006 110.564 13.7287 110.502L28.4596 77.4259C30.0379 79.1987 31.7508 80.8591 33.5836 82.392L21.7054 109.063ZM26.6807 108.127L36.9844 84.9913C39.0358 86.4235 41.2058 87.7096 43.4797 88.8301L33.6813 110.831C31.9844 109.016 29.2106 107.939 26.6807 108.127ZM41.0607 121.593C41.0331 121.655 41.0063 121.71 40.9805 121.758C40.9473 121.715 40.9117 121.665 40.8743 121.607L36.4461 114.859L47.2894 90.5124C49.4432 91.3599 51.6725 92.066 53.9657 92.6179L41.0607 121.593ZM65.9999 90.0352C41.1517 90.0352 20.9364 70.7388 20.9364 47.0201C20.9364 23.3013 41.152 4.00443 65.9999 4.00443C90.8478 4.00443 111.064 23.3011 111.064 47.0201C111.064 70.739 90.8483 90.0352 65.9999 90.0352ZM91.1257 121.607C91.0883 121.665 91.0528 121.714 91.0195 121.758C90.9937 121.71 90.9669 121.655 90.9393 121.593L78.0345 92.6175C80.3278 92.066 82.5571 91.3594 84.7108 90.5119L95.5542 114.859L91.1257 121.607ZM98.3187 110.831L88.5203 88.8301C90.7942 87.7096 92.9639 86.4235 95.0153 84.9915L105.32 108.127C102.789 107.938 100.016 109.016 98.3187 110.831ZM118.152 110.64L110.294 109.063L98.4156 82.3923C100.249 80.8596 101.962 79.199 103.54 77.4261L118.271 110.502C118.299 110.564 118.321 110.62 118.339 110.671C118.284 110.664 118.222 110.654 118.152 110.64Z" fill="black"/>
<path d="M65.9999 21.6804C51.3623 21.6804 39.4537 33.0477 39.4537 47.0199C39.4537 60.9921 51.3623 72.3591 65.9999 72.3591C80.6377 72.3591 92.5462 60.9921 92.5462 47.0199C92.5462 33.0477 80.6377 21.6804 65.9999 21.6804ZM65.9999 68.355C53.6754 68.355 43.6488 58.7841 43.6488 47.0202C43.6488 35.2559 53.6754 25.6851 65.9999 25.6851C78.3243 25.6851 88.3514 35.2559 88.3514 47.0202C88.3514 58.7839 78.3246 68.355 65.9999 68.355Z" fill="black"/>
<path d="M65.9999 11.2881C45.3589 11.2881 28.5666 27.3171 28.5666 47.0198C28.5666 66.7223 45.3589 82.7514 65.9999 82.7514C86.6408 82.7514 103.434 66.7223 103.434 47.0198C103.434 27.3171 86.6408 11.2881 65.9999 11.2881ZM65.9999 78.7469C47.672 78.7469 32.7614 64.5144 32.7614 47.0196C32.7614 29.5251 47.672 15.292 65.9999 15.292C84.3277 15.292 99.2385 29.5248 99.2385 47.0196C99.2385 64.5144 84.3277 78.7469 65.9999 78.7469Z" fill="black"/>
</svg>
