<svg width="35" height="34" viewBox="0 0 35 34" fill="none" xmlns="http://www.w3.org/2000/svg">
<path d="M33.6316 12.143C32.948 11.4554 32.1635 11.213 31.6135 11.1305C31.1414 7.66608 30.702 5.8623 15.8299 5.8623C0.957923 5.8623 0 8.04019 0 11.8201V12.4648C0 13.4876 0.853553 14.3168 1.90647 14.3168H6.67761C7.73053 14.3168 8.58408 13.4876 8.58408 12.4648V11.8201C8.58408 8.89203 13.1992 8.80236 15.8299 8.80236C18.4605 8.80236 23.0756 8.89203 23.0756 11.8201V12.4648C23.0756 13.4876 23.9292 14.3168 24.9821 14.3168H29.7533C30.8062 14.3168 31.6598 13.4876 31.6598 12.4648V12.2168C32.0113 12.3007 32.4551 12.4831 32.848 12.8782C33.8057 13.8419 34.1236 15.7038 33.7669 18.263C33.1484 22.6973 31.3546 24.2811 29.4442 24.8082V24.0368C29.4442 23.2536 29.2427 22.4784 28.8341 21.8011C26.9277 18.6315 24.2204 15.819 20.7805 13.3399V11.4667C20.7805 11.3212 20.658 11.2022 20.5082 11.2022H17.6784C17.5259 11.2022 17.4061 11.3212 17.4061 11.4667V13.3294H14.176V11.4667C14.176 11.3212 14.0534 11.2022 13.9036 11.2022H11.0711C10.9212 11.2022 10.7987 11.3212 10.7987 11.4667V13.3294C7.35348 15.8137 4.6435 18.6261 2.73423 21.8011C2.32567 22.4784 2.12413 23.2536 2.12413 24.0368V25.7803C2.12413 28.2648 4.19679 30.2781 6.75425 30.2781H24.8143C27.3316 30.2781 29.3748 28.3262 29.4383 25.8957C32.5003 25.199 34.2372 22.7721 34.8463 18.4051C35.2554 15.472 34.8466 13.3652 33.6316 12.143ZM20.5154 24.083L18.6983 23.4545C18.891 23.0772 19.0022 22.6534 19.0022 22.2033C19.0022 20.6476 17.7031 19.3855 16.0988 19.3855C14.4974 19.3855 13.1955 20.6476 13.1955 22.2033C13.1955 23.7617 14.4974 25.0238 16.0988 25.0238C16.6919 25.0238 17.2428 24.8504 17.7023 24.5541L18.699 26.1457C17.9482 26.614 17.0573 26.889 16.0989 26.889C13.4352 26.889 11.2782 24.7909 11.2782 22.2034C11.2782 19.6184 13.4352 17.5204 16.0989 17.5204C18.7625 17.5204 20.9224 19.6185 20.9224 22.2034C20.9223 22.8723 20.7755 23.5073 20.5154 24.083Z" fill="#FFF9FC"/>
</svg>
